<mxfile host="app.diagrams.net" modified="2023-06-13T00:01:03.405Z" agent="Mozilla/5.0 (X11; Linux x86_64) AppleWebKit/537.36 (KHTML, like Gecko) Chrome/114.0.0.0 Safari/537.36" etag="5KEbLpFrIjTvQKgQ26Pb" version="21.3.8" type="github">
  <diagram id="C5RBs43oDa-KdzZeNtuy" name="Page-1">
    <mxGraphModel dx="3703" dy="3485" grid="1" gridSize="10" guides="1" tooltips="1" connect="1" arrows="1" fold="1" page="1" pageScale="1" pageWidth="827" pageHeight="1169" math="0" shadow="0">
      <root>
        <mxCell id="WIyWlLk6GJQsqaUBKTNV-0" />
        <mxCell id="WIyWlLk6GJQsqaUBKTNV-1" parent="WIyWlLk6GJQsqaUBKTNV-0" />
        <mxCell id="1obgOibWWzwRihmE5DP7-78" value="Negocio" style="shape=folder;fontStyle=1;tabWidth=110;tabHeight=30;tabPosition=left;html=1;boundedLbl=1;labelInHeader=1;container=1;collapsible=0;whiteSpace=wrap;" vertex="1" parent="WIyWlLk6GJQsqaUBKTNV-1">
          <mxGeometry x="-890" y="-1300" width="1150" height="1000" as="geometry" />
        </mxCell>
        <mxCell id="1obgOibWWzwRihmE5DP7-79" value="" style="html=1;strokeColor=none;resizeWidth=1;resizeHeight=1;fillColor=none;part=1;connectable=0;allowArrows=0;deletable=0;whiteSpace=wrap;" vertex="1" parent="1obgOibWWzwRihmE5DP7-78">
          <mxGeometry width="1150" height="700" relative="1" as="geometry">
            <mxPoint y="30" as="offset" />
          </mxGeometry>
        </mxCell>
        <mxCell id="1obgOibWWzwRihmE5DP7-82" value="NegocioMusico" style="fontStyle=1;whiteSpace=wrap;html=1;" vertex="1" parent="1obgOibWWzwRihmE5DP7-78">
          <mxGeometry x="420" y="110" width="140" height="30" as="geometry" />
        </mxCell>
        <mxCell id="1obgOibWWzwRihmE5DP7-83" value="NegocioGerente" style="fontStyle=1;whiteSpace=wrap;html=1;" vertex="1" parent="1obgOibWWzwRihmE5DP7-78">
          <mxGeometry x="680" y="70" width="140" height="30" as="geometry" />
        </mxCell>
        <mxCell id="1obgOibWWzwRihmE5DP7-81" value="NegocioBanda" style="fontStyle=1;whiteSpace=wrap;html=1;" vertex="1" parent="1obgOibWWzwRihmE5DP7-78">
          <mxGeometry x="170" y="70" width="140" height="30" as="geometry" />
        </mxCell>
        <mxCell id="1obgOibWWzwRihmE5DP7-0" value="MusicoAbstrato" style="swimlane;fontStyle=1;align=center;verticalAlign=top;childLayout=stackLayout;horizontal=1;startSize=26;horizontalStack=0;resizeParent=1;resizeParentMax=0;resizeLast=0;collapsible=1;marginBottom=0;whiteSpace=wrap;html=1;shadow=0;" vertex="1" parent="WIyWlLk6GJQsqaUBKTNV-1">
          <mxGeometry x="-523" y="-1120" width="300" height="112" as="geometry">
            <mxRectangle x="-572" y="-1140" width="318" height="30" as="alternateBounds" />
          </mxGeometry>
        </mxCell>
        <mxCell id="1obgOibWWzwRihmE5DP7-1" value="- nome: String" style="text;strokeColor=none;fillColor=none;align=left;verticalAlign=top;spacingLeft=4;spacingRight=4;overflow=hidden;rotatable=0;points=[[0,0.5],[1,0.5]];portConstraint=eastwest;whiteSpace=wrap;html=1;" vertex="1" parent="1obgOibWWzwRihmE5DP7-0">
          <mxGeometry y="26" width="300" height="26" as="geometry" />
        </mxCell>
        <mxCell id="1obgOibWWzwRihmE5DP7-2" value="- exp: double" style="text;strokeColor=none;fillColor=none;align=left;verticalAlign=top;spacingLeft=4;spacingRight=4;overflow=hidden;rotatable=0;points=[[0,0.5],[1,0.5]];portConstraint=eastwest;whiteSpace=wrap;html=1;" vertex="1" parent="1obgOibWWzwRihmE5DP7-0">
          <mxGeometry y="52" width="300" height="26" as="geometry" />
        </mxCell>
        <mxCell id="1obgOibWWzwRihmE5DP7-3" value="- preco: int" style="text;strokeColor=none;fillColor=none;align=left;verticalAlign=top;spacingLeft=4;spacingRight=4;overflow=hidden;rotatable=0;points=[[0,0.5],[1,0.5]];portConstraint=eastwest;whiteSpace=wrap;html=1;" vertex="1" parent="1obgOibWWzwRihmE5DP7-0">
          <mxGeometry y="78" width="300" height="26" as="geometry" />
        </mxCell>
        <mxCell id="1obgOibWWzwRihmE5DP7-4" value="" style="line;strokeWidth=1;fillColor=none;align=left;verticalAlign=middle;spacingTop=-1;spacingLeft=3;spacingRight=3;rotatable=0;labelPosition=right;points=[];portConstraint=eastwest;strokeColor=inherit;" vertex="1" parent="1obgOibWWzwRihmE5DP7-0">
          <mxGeometry y="104" width="300" height="8" as="geometry" />
        </mxCell>
        <mxCell id="1obgOibWWzwRihmE5DP7-5" value="Tecladista" style="swimlane;fontStyle=1;align=center;verticalAlign=top;childLayout=stackLayout;horizontal=1;startSize=26;horizontalStack=0;resizeParent=1;resizeParentMax=0;resizeLast=0;collapsible=1;marginBottom=0;whiteSpace=wrap;html=1;" vertex="1" parent="WIyWlLk6GJQsqaUBKTNV-1">
          <mxGeometry x="-463" y="-930" width="180" height="60" as="geometry">
            <mxRectangle x="-760" y="-840" width="90" height="30" as="alternateBounds" />
          </mxGeometry>
        </mxCell>
        <mxCell id="1obgOibWWzwRihmE5DP7-6" value="- expMax: double" style="text;strokeColor=none;fillColor=none;align=left;verticalAlign=top;spacingLeft=4;spacingRight=4;overflow=hidden;rotatable=0;points=[[0,0.5],[1,0.5]];portConstraint=eastwest;whiteSpace=wrap;html=1;" vertex="1" parent="1obgOibWWzwRihmE5DP7-5">
          <mxGeometry y="26" width="180" height="26" as="geometry" />
        </mxCell>
        <mxCell id="1obgOibWWzwRihmE5DP7-7" value="" style="line;strokeWidth=1;fillColor=none;align=left;verticalAlign=middle;spacingTop=-1;spacingLeft=3;spacingRight=3;rotatable=0;labelPosition=right;points=[];portConstraint=eastwest;strokeColor=inherit;" vertex="1" parent="1obgOibWWzwRihmE5DP7-5">
          <mxGeometry y="52" width="180" height="8" as="geometry" />
        </mxCell>
        <mxCell id="1obgOibWWzwRihmE5DP7-8" value="Guitarrista" style="swimlane;fontStyle=1;align=center;verticalAlign=top;childLayout=stackLayout;horizontal=1;startSize=26;horizontalStack=0;resizeParent=1;resizeParentMax=0;resizeLast=0;collapsible=1;marginBottom=0;whiteSpace=wrap;html=1;" vertex="1" parent="WIyWlLk6GJQsqaUBKTNV-1">
          <mxGeometry x="-690" y="-990" width="180" height="60" as="geometry">
            <mxRectangle x="-413" y="-830" width="90" height="30" as="alternateBounds" />
          </mxGeometry>
        </mxCell>
        <mxCell id="1obgOibWWzwRihmE5DP7-9" value="- expMax: double" style="text;strokeColor=none;fillColor=none;align=left;verticalAlign=top;spacingLeft=4;spacingRight=4;overflow=hidden;rotatable=0;points=[[0,0.5],[1,0.5]];portConstraint=eastwest;whiteSpace=wrap;html=1;" vertex="1" parent="1obgOibWWzwRihmE5DP7-8">
          <mxGeometry y="26" width="180" height="26" as="geometry" />
        </mxCell>
        <mxCell id="1obgOibWWzwRihmE5DP7-10" value="" style="line;strokeWidth=1;fillColor=none;align=left;verticalAlign=middle;spacingTop=-1;spacingLeft=3;spacingRight=3;rotatable=0;labelPosition=right;points=[];portConstraint=eastwest;strokeColor=inherit;" vertex="1" parent="1obgOibWWzwRihmE5DP7-8">
          <mxGeometry y="52" width="180" height="8" as="geometry" />
        </mxCell>
        <mxCell id="1obgOibWWzwRihmE5DP7-11" value="Baterista" style="swimlane;fontStyle=1;align=center;verticalAlign=top;childLayout=stackLayout;horizontal=1;startSize=26;horizontalStack=0;resizeParent=1;resizeParentMax=0;resizeLast=0;collapsible=1;marginBottom=0;whiteSpace=wrap;html=1;" vertex="1" parent="WIyWlLk6GJQsqaUBKTNV-1">
          <mxGeometry x="-250" y="-990" width="180" height="60" as="geometry">
            <mxRectangle x="-103" y="-1000" width="90" height="30" as="alternateBounds" />
          </mxGeometry>
        </mxCell>
        <mxCell id="1obgOibWWzwRihmE5DP7-12" value="- expMax: double" style="text;strokeColor=none;fillColor=none;align=left;verticalAlign=top;spacingLeft=4;spacingRight=4;overflow=hidden;rotatable=0;points=[[0,0.5],[1,0.5]];portConstraint=eastwest;whiteSpace=wrap;html=1;" vertex="1" parent="1obgOibWWzwRihmE5DP7-11">
          <mxGeometry y="26" width="180" height="26" as="geometry" />
        </mxCell>
        <mxCell id="1obgOibWWzwRihmE5DP7-13" value="" style="line;strokeWidth=1;fillColor=none;align=left;verticalAlign=middle;spacingTop=-1;spacingLeft=3;spacingRight=3;rotatable=0;labelPosition=right;points=[];portConstraint=eastwest;strokeColor=inherit;" vertex="1" parent="1obgOibWWzwRihmE5DP7-11">
          <mxGeometry y="52" width="180" height="8" as="geometry" />
        </mxCell>
        <mxCell id="1obgOibWWzwRihmE5DP7-14" value="Vocalista" style="swimlane;fontStyle=1;align=center;verticalAlign=top;childLayout=stackLayout;horizontal=1;startSize=26;horizontalStack=0;resizeParent=1;resizeParentMax=0;resizeLast=0;collapsible=1;marginBottom=0;whiteSpace=wrap;html=1;" vertex="1" parent="WIyWlLk6GJQsqaUBKTNV-1">
          <mxGeometry x="-820" y="-1094" width="180" height="60" as="geometry">
            <mxRectangle x="-568" y="-730" width="90" height="30" as="alternateBounds" />
          </mxGeometry>
        </mxCell>
        <mxCell id="1obgOibWWzwRihmE5DP7-15" value="- expMax: double" style="text;strokeColor=none;fillColor=none;align=left;verticalAlign=top;spacingLeft=4;spacingRight=4;overflow=hidden;rotatable=0;points=[[0,0.5],[1,0.5]];portConstraint=eastwest;whiteSpace=wrap;html=1;" vertex="1" parent="1obgOibWWzwRihmE5DP7-14">
          <mxGeometry y="26" width="180" height="26" as="geometry" />
        </mxCell>
        <mxCell id="1obgOibWWzwRihmE5DP7-16" value="" style="line;strokeWidth=1;fillColor=none;align=left;verticalAlign=middle;spacingTop=-1;spacingLeft=3;spacingRight=3;rotatable=0;labelPosition=right;points=[];portConstraint=eastwest;strokeColor=inherit;" vertex="1" parent="1obgOibWWzwRihmE5DP7-14">
          <mxGeometry y="52" width="180" height="8" as="geometry" />
        </mxCell>
        <mxCell id="1obgOibWWzwRihmE5DP7-17" value="Baixista" style="swimlane;fontStyle=1;align=center;verticalAlign=top;childLayout=stackLayout;horizontal=1;startSize=26;horizontalStack=0;resizeParent=1;resizeParentMax=0;resizeLast=0;collapsible=1;marginBottom=0;whiteSpace=wrap;html=1;" vertex="1" parent="WIyWlLk6GJQsqaUBKTNV-1">
          <mxGeometry x="-130" y="-1094" width="180" height="60" as="geometry">
            <mxRectangle x="-140" y="-1080" width="90" height="30" as="alternateBounds" />
          </mxGeometry>
        </mxCell>
        <mxCell id="1obgOibWWzwRihmE5DP7-18" value="- expMax: double" style="text;strokeColor=none;fillColor=none;align=left;verticalAlign=top;spacingLeft=4;spacingRight=4;overflow=hidden;rotatable=0;points=[[0,0.5],[1,0.5]];portConstraint=eastwest;whiteSpace=wrap;html=1;" vertex="1" parent="1obgOibWWzwRihmE5DP7-17">
          <mxGeometry y="26" width="180" height="26" as="geometry" />
        </mxCell>
        <mxCell id="1obgOibWWzwRihmE5DP7-19" value="" style="line;strokeWidth=1;fillColor=none;align=left;verticalAlign=middle;spacingTop=-1;spacingLeft=3;spacingRight=3;rotatable=0;labelPosition=right;points=[];portConstraint=eastwest;strokeColor=inherit;" vertex="1" parent="1obgOibWWzwRihmE5DP7-17">
          <mxGeometry y="52" width="180" height="8" as="geometry" />
        </mxCell>
        <mxCell id="1obgOibWWzwRihmE5DP7-20" value="Banda" style="swimlane;fontStyle=1;align=center;verticalAlign=top;childLayout=stackLayout;horizontal=1;startSize=26;horizontalStack=0;resizeParent=1;resizeParentMax=0;resizeLast=0;collapsible=1;marginBottom=0;whiteSpace=wrap;html=1;" vertex="1" parent="WIyWlLk6GJQsqaUBKTNV-1">
          <mxGeometry x="-580" y="-670" width="420" height="346" as="geometry">
            <mxRectangle x="-1210" y="-490" width="140" height="30" as="alternateBounds" />
          </mxGeometry>
        </mxCell>
        <mxCell id="1obgOibWWzwRihmE5DP7-21" value="- nome: String" style="text;strokeColor=none;fillColor=none;align=left;verticalAlign=top;spacingLeft=4;spacingRight=4;overflow=hidden;rotatable=0;points=[[0,0.5],[1,0.5]];portConstraint=eastwest;whiteSpace=wrap;html=1;" vertex="1" parent="1obgOibWWzwRihmE5DP7-20">
          <mxGeometry y="26" width="420" height="26" as="geometry" />
        </mxCell>
        <mxCell id="1obgOibWWzwRihmE5DP7-22" value="- baixista: Baixista" style="text;strokeColor=none;fillColor=none;align=left;verticalAlign=top;spacingLeft=4;spacingRight=4;overflow=hidden;rotatable=0;points=[[0,0.5],[1,0.5]];portConstraint=eastwest;whiteSpace=wrap;html=1;" vertex="1" parent="1obgOibWWzwRihmE5DP7-20">
          <mxGeometry y="52" width="420" height="26" as="geometry" />
        </mxCell>
        <mxCell id="1obgOibWWzwRihmE5DP7-23" value="- baterista: Baterista" style="text;strokeColor=none;fillColor=none;align=left;verticalAlign=top;spacingLeft=4;spacingRight=4;overflow=hidden;rotatable=0;points=[[0,0.5],[1,0.5]];portConstraint=eastwest;whiteSpace=wrap;html=1;" vertex="1" parent="1obgOibWWzwRihmE5DP7-20">
          <mxGeometry y="78" width="420" height="26" as="geometry" />
        </mxCell>
        <mxCell id="1obgOibWWzwRihmE5DP7-24" value="- guitarrista: Guitarrista" style="text;strokeColor=none;fillColor=none;align=left;verticalAlign=top;spacingLeft=4;spacingRight=4;overflow=hidden;rotatable=0;points=[[0,0.5],[1,0.5]];portConstraint=eastwest;whiteSpace=wrap;html=1;" vertex="1" parent="1obgOibWWzwRihmE5DP7-20">
          <mxGeometry y="104" width="420" height="26" as="geometry" />
        </mxCell>
        <mxCell id="1obgOibWWzwRihmE5DP7-25" value="- tecladista: Tecladista" style="text;strokeColor=none;fillColor=none;align=left;verticalAlign=top;spacingLeft=4;spacingRight=4;overflow=hidden;rotatable=0;points=[[0,0.5],[1,0.5]];portConstraint=eastwest;whiteSpace=wrap;html=1;" vertex="1" parent="1obgOibWWzwRihmE5DP7-20">
          <mxGeometry y="130" width="420" height="26" as="geometry" />
        </mxCell>
        <mxCell id="1obgOibWWzwRihmE5DP7-26" value="- vocalista: Vocalista" style="text;strokeColor=none;fillColor=none;align=left;verticalAlign=top;spacingLeft=4;spacingRight=4;overflow=hidden;rotatable=0;points=[[0,0.5],[1,0.5]];portConstraint=eastwest;whiteSpace=wrap;html=1;" vertex="1" parent="1obgOibWWzwRihmE5DP7-20">
          <mxGeometry y="156" width="420" height="26" as="geometry" />
        </mxCell>
        <mxCell id="1obgOibWWzwRihmE5DP7-27" value="" style="line;strokeWidth=1;fillColor=none;align=left;verticalAlign=middle;spacingTop=-1;spacingLeft=3;spacingRight=3;rotatable=0;labelPosition=right;points=[];portConstraint=eastwest;strokeColor=inherit;" vertex="1" parent="1obgOibWWzwRihmE5DP7-20">
          <mxGeometry y="182" width="420" height="8" as="geometry" />
        </mxCell>
        <mxCell id="1obgOibWWzwRihmE5DP7-28" value="+ gerarBanda(nomes: ArrayList&amp;lt;String&amp;gt;, nome_banda: String): void" style="text;strokeColor=none;fillColor=none;align=left;verticalAlign=top;spacingLeft=4;spacingRight=4;overflow=hidden;rotatable=0;points=[[0,0.5],[1,0.5]];portConstraint=eastwest;whiteSpace=wrap;html=1;shadow=1;" vertex="1" parent="1obgOibWWzwRihmE5DP7-20">
          <mxGeometry y="190" width="420" height="26" as="geometry" />
        </mxCell>
        <mxCell id="1obgOibWWzwRihmE5DP7-29" value="+ calcularExp( ): double" style="text;strokeColor=none;fillColor=none;align=left;verticalAlign=top;spacingLeft=4;spacingRight=4;overflow=hidden;rotatable=0;points=[[0,0.5],[1,0.5]];portConstraint=eastwest;whiteSpace=wrap;html=1;shadow=1;" vertex="1" parent="1obgOibWWzwRihmE5DP7-20">
          <mxGeometry y="216" width="420" height="26" as="geometry" />
        </mxCell>
        <mxCell id="1obgOibWWzwRihmE5DP7-30" value="+ atualizarExp(exp: double, expShow: double, musico: MusicoAbstrato): void" style="text;strokeColor=none;fillColor=none;align=left;verticalAlign=top;spacingLeft=4;spacingRight=4;overflow=hidden;rotatable=0;points=[[0,0.5],[1,0.5]];portConstraint=eastwest;whiteSpace=wrap;html=1;shadow=1;" vertex="1" parent="1obgOibWWzwRihmE5DP7-20">
          <mxGeometry y="242" width="420" height="26" as="geometry" />
        </mxCell>
        <mxCell id="1obgOibWWzwRihmE5DP7-31" value="+ atualizarExp(exp: double): void" style="text;strokeColor=none;fillColor=none;align=left;verticalAlign=top;spacingLeft=4;spacingRight=4;overflow=hidden;rotatable=0;points=[[0,0.5],[1,0.5]];portConstraint=eastwest;whiteSpace=wrap;html=1;shadow=1;" vertex="1" parent="1obgOibWWzwRihmE5DP7-20">
          <mxGeometry y="268" width="420" height="26" as="geometry" />
        </mxCell>
        <mxCell id="1obgOibWWzwRihmE5DP7-32" value="+ pagarBanda(gerente: Gerente): void" style="text;strokeColor=none;fillColor=none;align=left;verticalAlign=top;spacingLeft=4;spacingRight=4;overflow=hidden;rotatable=0;points=[[0,0.5],[1,0.5]];portConstraint=eastwest;whiteSpace=wrap;html=1;shadow=1;" vertex="1" parent="1obgOibWWzwRihmE5DP7-20">
          <mxGeometry y="294" width="420" height="26" as="geometry" />
        </mxCell>
        <mxCell id="1obgOibWWzwRihmE5DP7-33" value="+ imprimirBanda( ): String[ ]" style="text;strokeColor=none;fillColor=none;align=left;verticalAlign=top;spacingLeft=4;spacingRight=4;overflow=hidden;rotatable=0;points=[[0,0.5],[1,0.5]];portConstraint=eastwest;whiteSpace=wrap;html=1;shadow=1;" vertex="1" parent="1obgOibWWzwRihmE5DP7-20">
          <mxGeometry y="320" width="420" height="26" as="geometry" />
        </mxCell>
        <mxCell id="1obgOibWWzwRihmE5DP7-34" value="Gerente" style="swimlane;fontStyle=1;align=center;verticalAlign=top;childLayout=stackLayout;horizontal=1;startSize=26;horizontalStack=0;resizeParent=1;resizeParentMax=0;resizeLast=0;collapsible=1;marginBottom=0;whiteSpace=wrap;html=1;" vertex="1" parent="WIyWlLk6GJQsqaUBKTNV-1">
          <mxGeometry x="20" y="-490" width="170" height="112" as="geometry">
            <mxRectangle x="-1210" y="-490" width="140" height="30" as="alternateBounds" />
          </mxGeometry>
        </mxCell>
        <mxCell id="1obgOibWWzwRihmE5DP7-35" value="- nome: String" style="text;strokeColor=none;fillColor=none;align=left;verticalAlign=top;spacingLeft=4;spacingRight=4;overflow=hidden;rotatable=0;points=[[0,0.5],[1,0.5]];portConstraint=eastwest;whiteSpace=wrap;html=1;" vertex="1" parent="1obgOibWWzwRihmE5DP7-34">
          <mxGeometry y="26" width="170" height="26" as="geometry" />
        </mxCell>
        <mxCell id="1obgOibWWzwRihmE5DP7-36" value="- banda: Banda" style="text;strokeColor=none;fillColor=none;align=left;verticalAlign=top;spacingLeft=4;spacingRight=4;overflow=hidden;rotatable=0;points=[[0,0.5],[1,0.5]];portConstraint=eastwest;whiteSpace=wrap;html=1;" vertex="1" parent="1obgOibWWzwRihmE5DP7-34">
          <mxGeometry y="52" width="170" height="26" as="geometry" />
        </mxCell>
        <mxCell id="1obgOibWWzwRihmE5DP7-37" value="- dinheiro: double" style="text;strokeColor=none;fillColor=none;align=left;verticalAlign=top;spacingLeft=4;spacingRight=4;overflow=hidden;rotatable=0;points=[[0,0.5],[1,0.5]];portConstraint=eastwest;whiteSpace=wrap;html=1;" vertex="1" parent="1obgOibWWzwRihmE5DP7-34">
          <mxGeometry y="78" width="170" height="26" as="geometry" />
        </mxCell>
        <mxCell id="1obgOibWWzwRihmE5DP7-38" value="" style="line;strokeWidth=1;fillColor=none;align=left;verticalAlign=middle;spacingTop=-1;spacingLeft=3;spacingRight=3;rotatable=0;labelPosition=right;points=[];portConstraint=eastwest;strokeColor=inherit;" vertex="1" parent="1obgOibWWzwRihmE5DP7-34">
          <mxGeometry y="104" width="170" height="8" as="geometry" />
        </mxCell>
        <mxCell id="1obgOibWWzwRihmE5DP7-39" style="edgeStyle=orthogonalEdgeStyle;rounded=0;orthogonalLoop=1;jettySize=auto;html=1;entryX=1.003;entryY=1.095;entryDx=0;entryDy=0;entryPerimeter=0;" edge="1" parent="WIyWlLk6GJQsqaUBKTNV-1" source="1obgOibWWzwRihmE5DP7-36" target="1obgOibWWzwRihmE5DP7-29">
          <mxGeometry relative="1" as="geometry" />
        </mxCell>
        <mxCell id="1obgOibWWzwRihmE5DP7-40" value="Gerencia" style="text;strokeColor=none;fillColor=none;align=left;verticalAlign=middle;spacingLeft=4;spacingRight=4;overflow=hidden;points=[[0,0.5],[1,0.5]];portConstraint=eastwest;rotatable=0;whiteSpace=wrap;html=1;" vertex="1" parent="WIyWlLk6GJQsqaUBKTNV-1">
          <mxGeometry x="-100" y="-449" width="80" height="30" as="geometry" />
        </mxCell>
        <mxCell id="1obgOibWWzwRihmE5DP7-41" value="1" style="text;strokeColor=none;fillColor=none;align=left;verticalAlign=middle;spacingLeft=4;spacingRight=4;overflow=hidden;points=[[0,0.5],[1,0.5]];portConstraint=eastwest;rotatable=0;whiteSpace=wrap;html=1;" vertex="1" parent="WIyWlLk6GJQsqaUBKTNV-1">
          <mxGeometry y="-449" width="80" height="30" as="geometry" />
        </mxCell>
        <mxCell id="1obgOibWWzwRihmE5DP7-42" value="1..*" style="text;strokeColor=none;fillColor=none;align=left;verticalAlign=middle;spacingLeft=4;spacingRight=4;overflow=hidden;points=[[0,0.5],[1,0.5]];portConstraint=eastwest;rotatable=0;whiteSpace=wrap;html=1;" vertex="1" parent="WIyWlLk6GJQsqaUBKTNV-1">
          <mxGeometry x="-150" y="-444" width="110" height="20" as="geometry" />
        </mxCell>
        <mxCell id="1obgOibWWzwRihmE5DP7-58" value="&lt;p style=&quot;margin:0px;margin-top:4px;text-align:center;&quot;&gt;&lt;i&gt;&amp;lt;&amp;lt;Interface&amp;gt;&amp;gt;&lt;/i&gt;&lt;br&gt;&lt;b&gt;IMusico&lt;/b&gt;&lt;/p&gt;&lt;hr size=&quot;1&quot;&gt;&lt;p style=&quot;margin:0px;margin-left:4px;&quot;&gt;+ alcancarExpMax(musico: MusicoAbstrato): boolean&lt;br&gt;+ receberCache(valor: double): double&lt;/p&gt;" style="verticalAlign=top;align=left;overflow=fill;fontSize=12;fontFamily=Helvetica;html=1;whiteSpace=wrap;" vertex="1" parent="WIyWlLk6GJQsqaUBKTNV-1">
          <mxGeometry x="-525" y="-800" width="320" height="100" as="geometry" />
        </mxCell>
        <mxCell id="1obgOibWWzwRihmE5DP7-59" value="Extends" style="endArrow=block;endSize=16;endFill=0;html=1;rounded=0;exitX=1.022;exitY=0.154;exitDx=0;exitDy=0;exitPerimeter=0;" edge="1" parent="WIyWlLk6GJQsqaUBKTNV-1" source="1obgOibWWzwRihmE5DP7-9">
          <mxGeometry width="160" relative="1" as="geometry">
            <mxPoint x="-440" y="-910" as="sourcePoint" />
            <mxPoint x="-460" y="-1010" as="targetPoint" />
            <Array as="points">
              <mxPoint x="-460" y="-960" />
            </Array>
          </mxGeometry>
        </mxCell>
        <mxCell id="1obgOibWWzwRihmE5DP7-60" value="Extends" style="endArrow=block;endSize=16;endFill=0;html=1;rounded=0;exitX=0;exitY=0.5;exitDx=0;exitDy=0;entryX=0.777;entryY=1;entryDx=0;entryDy=0;entryPerimeter=0;" edge="1" parent="WIyWlLk6GJQsqaUBKTNV-1" source="1obgOibWWzwRihmE5DP7-12" target="1obgOibWWzwRihmE5DP7-4">
          <mxGeometry width="160" relative="1" as="geometry">
            <mxPoint x="-496" y="-950" as="sourcePoint" />
            <mxPoint x="-450" y="-1000" as="targetPoint" />
            <Array as="points">
              <mxPoint x="-290" y="-950" />
            </Array>
          </mxGeometry>
        </mxCell>
        <mxCell id="1obgOibWWzwRihmE5DP7-61" value="Extends" style="endArrow=block;endSize=16;endFill=0;html=1;rounded=0;exitX=0.453;exitY=-0.019;exitDx=0;exitDy=0;exitPerimeter=0;" edge="1" parent="WIyWlLk6GJQsqaUBKTNV-1" source="1obgOibWWzwRihmE5DP7-5">
          <mxGeometry width="160" relative="1" as="geometry">
            <mxPoint x="-440" y="-970" as="sourcePoint" />
            <mxPoint x="-380" y="-1010" as="targetPoint" />
          </mxGeometry>
        </mxCell>
        <mxCell id="1obgOibWWzwRihmE5DP7-62" value="Extends" style="endArrow=block;endSize=16;endFill=0;html=1;rounded=0;exitX=0;exitY=0.5;exitDx=0;exitDy=0;entryX=1.003;entryY=0.204;entryDx=0;entryDy=0;entryPerimeter=0;" edge="1" parent="WIyWlLk6GJQsqaUBKTNV-1" source="1obgOibWWzwRihmE5DP7-17" target="1obgOibWWzwRihmE5DP7-2">
          <mxGeometry width="160" relative="1" as="geometry">
            <mxPoint x="-440" y="-970" as="sourcePoint" />
            <mxPoint x="-280" y="-970" as="targetPoint" />
          </mxGeometry>
        </mxCell>
        <mxCell id="1obgOibWWzwRihmE5DP7-63" value="Extends" style="endArrow=block;endSize=16;endFill=0;html=1;rounded=0;exitX=1;exitY=0.5;exitDx=0;exitDy=0;entryX=0;entryY=0.5;entryDx=0;entryDy=0;" edge="1" parent="WIyWlLk6GJQsqaUBKTNV-1" source="1obgOibWWzwRihmE5DP7-15" target="1obgOibWWzwRihmE5DP7-2">
          <mxGeometry width="160" relative="1" as="geometry">
            <mxPoint x="-120" y="-1054" as="sourcePoint" />
            <mxPoint x="-212" y="-1053" as="targetPoint" />
          </mxGeometry>
        </mxCell>
        <mxCell id="1obgOibWWzwRihmE5DP7-80" value="Fachada" style="fontStyle=1;whiteSpace=wrap;html=1;" vertex="1" parent="WIyWlLk6GJQsqaUBKTNV-1">
          <mxGeometry x="-450" y="-1260" width="140" height="30" as="geometry" />
        </mxCell>
        <mxCell id="1obgOibWWzwRihmE5DP7-85" value="" style="html=1;verticalAlign=bottom;labelBackgroundColor=none;endArrow=open;endFill=0;dashed=1;rounded=0;exitX=0;exitY=0.5;exitDx=0;exitDy=0;entryX=1;entryY=0.5;entryDx=0;entryDy=0;" edge="1" parent="WIyWlLk6GJQsqaUBKTNV-1" source="1obgOibWWzwRihmE5DP7-80" target="1obgOibWWzwRihmE5DP7-81">
          <mxGeometry width="160" relative="1" as="geometry">
            <mxPoint x="-670" y="-1230" as="sourcePoint" />
            <mxPoint x="-510" y="-1230" as="targetPoint" />
          </mxGeometry>
        </mxCell>
        <mxCell id="1obgOibWWzwRihmE5DP7-86" value="" style="html=1;verticalAlign=bottom;labelBackgroundColor=none;endArrow=open;endFill=0;dashed=1;rounded=0;exitX=0.488;exitY=1.215;exitDx=0;exitDy=0;exitPerimeter=0;" edge="1" parent="WIyWlLk6GJQsqaUBKTNV-1" source="1obgOibWWzwRihmE5DP7-6">
          <mxGeometry width="160" relative="1" as="geometry">
            <mxPoint x="-440" y="-1235" as="sourcePoint" />
            <mxPoint x="-375" y="-800" as="targetPoint" />
          </mxGeometry>
        </mxCell>
        <mxCell id="1obgOibWWzwRihmE5DP7-87" value="" style="html=1;verticalAlign=bottom;labelBackgroundColor=none;endArrow=open;endFill=0;dashed=1;rounded=0;exitX=0;exitY=0.5;exitDx=0;exitDy=0;entryX=0.132;entryY=1.051;entryDx=0;entryDy=0;entryPerimeter=0;" edge="1" parent="WIyWlLk6GJQsqaUBKTNV-1" source="1obgOibWWzwRihmE5DP7-28" target="1obgOibWWzwRihmE5DP7-16">
          <mxGeometry width="160" relative="1" as="geometry">
            <mxPoint x="-430" y="-1225" as="sourcePoint" />
            <mxPoint x="-550" y="-1165" as="targetPoint" />
            <Array as="points">
              <mxPoint x="-796" y="-467" />
            </Array>
          </mxGeometry>
        </mxCell>
        <mxCell id="1obgOibWWzwRihmE5DP7-88" value="" style="html=1;verticalAlign=bottom;labelBackgroundColor=none;endArrow=open;endFill=0;dashed=1;rounded=0;exitX=0.5;exitY=1;exitDx=0;exitDy=0;entryX=0.5;entryY=0;entryDx=0;entryDy=0;" edge="1" parent="WIyWlLk6GJQsqaUBKTNV-1" source="1obgOibWWzwRihmE5DP7-80" target="1obgOibWWzwRihmE5DP7-82">
          <mxGeometry width="160" relative="1" as="geometry">
            <mxPoint x="-420" y="-1215" as="sourcePoint" />
            <mxPoint x="-540" y="-1155" as="targetPoint" />
          </mxGeometry>
        </mxCell>
        <mxCell id="1obgOibWWzwRihmE5DP7-91" value="" style="html=1;verticalAlign=bottom;labelBackgroundColor=none;endArrow=open;endFill=0;dashed=1;rounded=0;exitX=1;exitY=0.5;exitDx=0;exitDy=0;entryX=0;entryY=0.5;entryDx=0;entryDy=0;" edge="1" parent="WIyWlLk6GJQsqaUBKTNV-1" source="1obgOibWWzwRihmE5DP7-80" target="1obgOibWWzwRihmE5DP7-83">
          <mxGeometry width="160" relative="1" as="geometry">
            <mxPoint x="-370" y="-1220" as="sourcePoint" />
            <mxPoint x="-370" y="-1180" as="targetPoint" />
          </mxGeometry>
        </mxCell>
        <mxCell id="1obgOibWWzwRihmE5DP7-92" value="" style="html=1;verticalAlign=bottom;labelBackgroundColor=none;endArrow=open;endFill=0;dashed=1;rounded=0;exitX=0.5;exitY=1;exitDx=0;exitDy=0;" edge="1" parent="WIyWlLk6GJQsqaUBKTNV-1" source="1obgOibWWzwRihmE5DP7-82">
          <mxGeometry width="160" relative="1" as="geometry">
            <mxPoint x="-360" y="-1210" as="sourcePoint" />
            <mxPoint x="-380" y="-1120" as="targetPoint" />
          </mxGeometry>
        </mxCell>
        <mxCell id="1obgOibWWzwRihmE5DP7-93" value="" style="html=1;verticalAlign=bottom;labelBackgroundColor=none;endArrow=open;endFill=0;dashed=1;rounded=0;exitX=0;exitY=0.5;exitDx=0;exitDy=0;" edge="1" parent="WIyWlLk6GJQsqaUBKTNV-1" source="1obgOibWWzwRihmE5DP7-26">
          <mxGeometry width="160" relative="1" as="geometry">
            <mxPoint x="-350" y="-1200" as="sourcePoint" />
            <mxPoint x="-660" y="-930" as="targetPoint" />
            <Array as="points">
              <mxPoint x="-660" y="-500" />
            </Array>
          </mxGeometry>
        </mxCell>
        <mxCell id="1obgOibWWzwRihmE5DP7-95" value="" style="html=1;verticalAlign=bottom;labelBackgroundColor=none;endArrow=open;endFill=0;dashed=1;rounded=0;exitX=0;exitY=0.5;exitDx=0;exitDy=0;entryX=0;entryY=0.5;entryDx=0;entryDy=0;" edge="1" parent="WIyWlLk6GJQsqaUBKTNV-1" source="1obgOibWWzwRihmE5DP7-22" target="1obgOibWWzwRihmE5DP7-6">
          <mxGeometry width="160" relative="1" as="geometry">
            <mxPoint x="50" y="-890" as="sourcePoint" />
            <mxPoint x="210" y="-890" as="targetPoint" />
            <Array as="points">
              <mxPoint x="-590" y="-891" />
            </Array>
          </mxGeometry>
        </mxCell>
        <mxCell id="1obgOibWWzwRihmE5DP7-96" value="" style="html=1;verticalAlign=bottom;labelBackgroundColor=none;endArrow=open;endFill=0;dashed=1;rounded=0;exitX=1;exitY=0.5;exitDx=0;exitDy=0;entryX=0.75;entryY=1;entryDx=0;entryDy=0;" edge="1" parent="WIyWlLk6GJQsqaUBKTNV-1" source="1obgOibWWzwRihmE5DP7-23" target="1obgOibWWzwRihmE5DP7-11">
          <mxGeometry width="160" relative="1" as="geometry">
            <mxPoint x="60" y="-880" as="sourcePoint" />
            <mxPoint x="220" y="-880" as="targetPoint" />
            <Array as="points">
              <mxPoint x="-115" y="-580" />
            </Array>
          </mxGeometry>
        </mxCell>
        <mxCell id="1obgOibWWzwRihmE5DP7-97" value="" style="html=1;verticalAlign=bottom;labelBackgroundColor=none;endArrow=open;endFill=0;dashed=1;rounded=0;exitX=1;exitY=0.5;exitDx=0;exitDy=0;entryX=0.75;entryY=1;entryDx=0;entryDy=0;" edge="1" parent="WIyWlLk6GJQsqaUBKTNV-1" source="1obgOibWWzwRihmE5DP7-26" target="1obgOibWWzwRihmE5DP7-17">
          <mxGeometry width="160" relative="1" as="geometry">
            <mxPoint x="70" y="-870" as="sourcePoint" />
            <mxPoint x="230" y="-870" as="targetPoint" />
            <Array as="points">
              <mxPoint x="5" y="-500" />
            </Array>
          </mxGeometry>
        </mxCell>
        <mxCell id="1obgOibWWzwRihmE5DP7-98" value="" style="html=1;verticalAlign=bottom;labelBackgroundColor=none;endArrow=open;endFill=0;dashed=1;rounded=0;exitX=0.25;exitY=1;exitDx=0;exitDy=0;entryX=0;entryY=0.25;entryDx=0;entryDy=0;" edge="1" parent="WIyWlLk6GJQsqaUBKTNV-1" source="1obgOibWWzwRihmE5DP7-14" target="1obgOibWWzwRihmE5DP7-58">
          <mxGeometry width="160" relative="1" as="geometry">
            <mxPoint x="80" y="-860" as="sourcePoint" />
            <mxPoint x="240" y="-860" as="targetPoint" />
            <Array as="points">
              <mxPoint x="-775" y="-775" />
            </Array>
          </mxGeometry>
        </mxCell>
        <mxCell id="1obgOibWWzwRihmE5DP7-99" value="" style="html=1;verticalAlign=bottom;labelBackgroundColor=none;endArrow=open;endFill=0;dashed=1;rounded=0;exitX=0.5;exitY=1;exitDx=0;exitDy=0;entryX=0;entryY=0.5;entryDx=0;entryDy=0;" edge="1" parent="WIyWlLk6GJQsqaUBKTNV-1" source="1obgOibWWzwRihmE5DP7-8" target="1obgOibWWzwRihmE5DP7-58">
          <mxGeometry width="160" relative="1" as="geometry">
            <mxPoint x="90" y="-850" as="sourcePoint" />
            <mxPoint x="250" y="-850" as="targetPoint" />
            <Array as="points">
              <mxPoint x="-600" y="-750" />
            </Array>
          </mxGeometry>
        </mxCell>
        <mxCell id="1obgOibWWzwRihmE5DP7-100" value="" style="html=1;verticalAlign=bottom;labelBackgroundColor=none;endArrow=open;endFill=0;dashed=1;rounded=0;exitX=0.5;exitY=1;exitDx=0;exitDy=0;entryX=1;entryY=0.5;entryDx=0;entryDy=0;" edge="1" parent="WIyWlLk6GJQsqaUBKTNV-1" source="1obgOibWWzwRihmE5DP7-17" target="1obgOibWWzwRihmE5DP7-58">
          <mxGeometry width="160" relative="1" as="geometry">
            <mxPoint x="100" y="-840" as="sourcePoint" />
            <mxPoint x="260" y="-840" as="targetPoint" />
            <Array as="points">
              <mxPoint x="-40" y="-750" />
            </Array>
          </mxGeometry>
        </mxCell>
        <mxCell id="1obgOibWWzwRihmE5DP7-101" value="" style="html=1;verticalAlign=bottom;labelBackgroundColor=none;endArrow=open;endFill=0;dashed=1;rounded=0;exitX=0.5;exitY=1;exitDx=0;exitDy=0;entryX=1;entryY=0.25;entryDx=0;entryDy=0;" edge="1" parent="WIyWlLk6GJQsqaUBKTNV-1" source="1obgOibWWzwRihmE5DP7-11" target="1obgOibWWzwRihmE5DP7-58">
          <mxGeometry width="160" relative="1" as="geometry">
            <mxPoint x="110" y="-830" as="sourcePoint" />
            <mxPoint x="270" y="-830" as="targetPoint" />
            <Array as="points">
              <mxPoint x="-160" y="-775" />
            </Array>
          </mxGeometry>
        </mxCell>
        <mxCell id="1obgOibWWzwRihmE5DP7-102" value="Dados" style="shape=folder;fontStyle=1;tabWidth=110;tabHeight=30;tabPosition=left;html=1;boundedLbl=1;labelInHeader=1;container=1;collapsible=0;whiteSpace=wrap;" vertex="1" parent="WIyWlLk6GJQsqaUBKTNV-1">
          <mxGeometry x="-650" y="-280" width="610" height="290" as="geometry" />
        </mxCell>
        <mxCell id="1obgOibWWzwRihmE5DP7-103" value="" style="html=1;strokeColor=none;resizeWidth=1;resizeHeight=1;fillColor=none;part=1;connectable=0;allowArrows=0;deletable=0;whiteSpace=wrap;" vertex="1" parent="1obgOibWWzwRihmE5DP7-102">
          <mxGeometry width="1830.0000000000002" height="609" relative="1" as="geometry">
            <mxPoint y="30" as="offset" />
          </mxGeometry>
        </mxCell>
        <mxCell id="1obgOibWWzwRihmE5DP7-110" value="RepositorioMusicosArrayList" style="fontStyle=1;whiteSpace=wrap;html=1;" vertex="1" parent="1obgOibWWzwRihmE5DP7-102">
          <mxGeometry x="310.003893939394" y="177.55102040816334" width="286.97727272727275" height="35.51020408163266" as="geometry" />
        </mxCell>
        <mxCell id="1obgOibWWzwRihmE5DP7-113" value="RepositorioBandaArrayList" style="fontStyle=1;whiteSpace=wrap;html=1;" vertex="1" parent="1obgOibWWzwRihmE5DP7-102">
          <mxGeometry x="18.022727272727273" y="177.55102040816334" width="286.97727272727275" height="35.51020408163266" as="geometry" />
        </mxCell>
        <mxCell id="1obgOibWWzwRihmE5DP7-104" value="" style="ellipse;" vertex="1" parent="WIyWlLk6GJQsqaUBKTNV-1">
          <mxGeometry x="-525" y="-170" width="30" height="30" as="geometry" />
        </mxCell>
        <mxCell id="1obgOibWWzwRihmE5DP7-105" value="&lt;b&gt;RepositorioBanda&lt;/b&gt;" style="text;html=1;strokeColor=none;fillColor=none;align=center;verticalAlign=middle;whiteSpace=wrap;rounded=0;" vertex="1" parent="WIyWlLk6GJQsqaUBKTNV-1">
          <mxGeometry x="-540" y="-190" width="60" height="30" as="geometry" />
        </mxCell>
        <mxCell id="1obgOibWWzwRihmE5DP7-108" value="&lt;b&gt;RepositorioMusicos&lt;/b&gt;" style="text;html=1;strokeColor=none;fillColor=none;align=center;verticalAlign=middle;whiteSpace=wrap;rounded=0;" vertex="1" parent="WIyWlLk6GJQsqaUBKTNV-1">
          <mxGeometry x="-265" y="-190" width="60" height="30" as="geometry" />
        </mxCell>
        <mxCell id="1obgOibWWzwRihmE5DP7-109" value="" style="ellipse;" vertex="1" parent="WIyWlLk6GJQsqaUBKTNV-1">
          <mxGeometry x="-250" y="-170" width="30" height="30" as="geometry" />
        </mxCell>
        <mxCell id="1obgOibWWzwRihmE5DP7-115" value="" style="endArrow=none;html=1;rounded=0;entryX=0.5;entryY=1;entryDx=0;entryDy=0;exitX=0.5;exitY=0;exitDx=0;exitDy=0;" edge="1" parent="WIyWlLk6GJQsqaUBKTNV-1" source="1obgOibWWzwRihmE5DP7-113" target="1obgOibWWzwRihmE5DP7-104">
          <mxGeometry width="50" height="50" relative="1" as="geometry">
            <mxPoint x="-490" y="-80" as="sourcePoint" />
            <mxPoint x="-430" y="-40" as="targetPoint" />
          </mxGeometry>
        </mxCell>
        <mxCell id="1obgOibWWzwRihmE5DP7-116" value="" style="endArrow=none;html=1;rounded=0;entryX=0.5;entryY=1;entryDx=0;entryDy=0;exitX=0.25;exitY=0;exitDx=0;exitDy=0;" edge="1" parent="WIyWlLk6GJQsqaUBKTNV-1" source="1obgOibWWzwRihmE5DP7-110" target="1obgOibWWzwRihmE5DP7-109">
          <mxGeometry width="50" height="50" relative="1" as="geometry">
            <mxPoint x="-478" y="-62" as="sourcePoint" />
            <mxPoint x="-500" y="-130" as="targetPoint" />
          </mxGeometry>
        </mxCell>
        <mxCell id="1obgOibWWzwRihmE5DP7-117" value="" style="html=1;verticalAlign=bottom;labelBackgroundColor=none;endArrow=open;endFill=0;dashed=1;rounded=0;exitX=0;exitY=0.5;exitDx=0;exitDy=0;entryX=0;entryY=0.5;entryDx=0;entryDy=0;" edge="1" parent="WIyWlLk6GJQsqaUBKTNV-1" source="1obgOibWWzwRihmE5DP7-81" target="1obgOibWWzwRihmE5DP7-104">
          <mxGeometry width="160" relative="1" as="geometry">
            <mxPoint x="-1140" y="-770" as="sourcePoint" />
            <mxPoint x="-980" y="-770" as="targetPoint" />
            <Array as="points">
              <mxPoint x="-980" y="-1215" />
              <mxPoint x="-980" y="-155" />
            </Array>
          </mxGeometry>
        </mxCell>
        <mxCell id="1obgOibWWzwRihmE5DP7-118" value="" style="html=1;verticalAlign=bottom;labelBackgroundColor=none;endArrow=open;endFill=0;dashed=1;rounded=0;exitX=1;exitY=0.5;exitDx=0;exitDy=0;entryX=1;entryY=0.5;entryDx=0;entryDy=0;" edge="1" parent="WIyWlLk6GJQsqaUBKTNV-1" source="1obgOibWWzwRihmE5DP7-82" target="1obgOibWWzwRihmE5DP7-109">
          <mxGeometry width="160" relative="1" as="geometry">
            <mxPoint x="-1130" y="-760" as="sourcePoint" />
            <mxPoint x="-970" y="-760" as="targetPoint" />
            <Array as="points">
              <mxPoint x="460" y="-1170" />
              <mxPoint x="470" y="-155" />
            </Array>
          </mxGeometry>
        </mxCell>
        <mxCell id="1obgOibWWzwRihmE5DP7-119" value="" style="html=1;verticalAlign=bottom;labelBackgroundColor=none;endArrow=open;endFill=0;dashed=1;rounded=0;exitX=0;exitY=1;exitDx=0;exitDy=0;entryX=0;entryY=0.5;entryDx=0;entryDy=0;" edge="1" parent="WIyWlLk6GJQsqaUBKTNV-1" source="1obgOibWWzwRihmE5DP7-81" target="1obgOibWWzwRihmE5DP7-30">
          <mxGeometry width="160" relative="1" as="geometry">
            <mxPoint x="-1120" y="-750" as="sourcePoint" />
            <mxPoint x="-960" y="-750" as="targetPoint" />
            <Array as="points">
              <mxPoint x="-870" y="-1200" />
              <mxPoint x="-860" y="-420" />
            </Array>
          </mxGeometry>
        </mxCell>
        <mxCell id="1obgOibWWzwRihmE5DP7-120" value="" style="html=1;verticalAlign=bottom;labelBackgroundColor=none;endArrow=open;endFill=0;dashed=1;rounded=0;exitX=1;exitY=0.5;exitDx=0;exitDy=0;entryX=0.5;entryY=0;entryDx=0;entryDy=0;" edge="1" parent="WIyWlLk6GJQsqaUBKTNV-1" source="1obgOibWWzwRihmE5DP7-83" target="1obgOibWWzwRihmE5DP7-34">
          <mxGeometry width="160" relative="1" as="geometry">
            <mxPoint x="-1110" y="-740" as="sourcePoint" />
            <mxPoint x="-950" y="-740" as="targetPoint" />
            <Array as="points">
              <mxPoint x="110" y="-1215" />
            </Array>
          </mxGeometry>
        </mxCell>
        <mxCell id="1obgOibWWzwRihmE5DP7-121" value="GUI" style="shape=folder;fontStyle=1;tabWidth=110;tabHeight=30;tabPosition=left;html=1;boundedLbl=1;labelInHeader=1;container=1;collapsible=0;whiteSpace=wrap;" vertex="1" parent="WIyWlLk6GJQsqaUBKTNV-1">
          <mxGeometry x="-1260" y="-1240" width="150" height="100" as="geometry" />
        </mxCell>
        <mxCell id="1obgOibWWzwRihmE5DP7-122" value="" style="html=1;strokeColor=none;resizeWidth=1;resizeHeight=1;fillColor=none;part=1;connectable=0;allowArrows=0;deletable=0;whiteSpace=wrap;" vertex="1" parent="1obgOibWWzwRihmE5DP7-121">
          <mxGeometry width="150" height="70" relative="1" as="geometry">
            <mxPoint y="30" as="offset" />
          </mxGeometry>
        </mxCell>
        <mxCell id="1obgOibWWzwRihmE5DP7-123" value="&lt;b&gt;Console&lt;/b&gt;" style="html=1;align=center;verticalAlign=middle;dashed=0;whiteSpace=wrap;" vertex="1" parent="1obgOibWWzwRihmE5DP7-121">
          <mxGeometry x="30" y="50" width="60" height="30" as="geometry" />
        </mxCell>
        <mxCell id="1obgOibWWzwRihmE5DP7-125" value="" style="html=1;verticalAlign=bottom;labelBackgroundColor=none;endArrow=open;endFill=0;dashed=1;rounded=0;exitX=0;exitY=0;exitDx=130;exitDy=30;exitPerimeter=0;entryX=0.5;entryY=0;entryDx=0;entryDy=0;" edge="1" parent="WIyWlLk6GJQsqaUBKTNV-1" source="1obgOibWWzwRihmE5DP7-121" target="1obgOibWWzwRihmE5DP7-80">
          <mxGeometry width="160" relative="1" as="geometry">
            <mxPoint x="-1290" y="-871.4300000000001" as="sourcePoint" />
            <mxPoint x="-1130" y="-871.4300000000001" as="targetPoint" />
            <Array as="points">
              <mxPoint x="-1130" y="-1320" />
              <mxPoint x="-380" y="-1320" />
            </Array>
          </mxGeometry>
        </mxCell>
      </root>
    </mxGraphModel>
  </diagram>
</mxfile>
